<?xml version="1.0" encoding="UTF-8" standalone="no"?>
<svg
   xmlns:dc="http://purl.org/dc/elements/1.1/"
   xmlns:cc="http://creativecommons.org/ns#"
   xmlns:rdf="http://www.w3.org/1999/02/22-rdf-syntax-ns#"
   xmlns:svg="http://www.w3.org/2000/svg"
   xmlns="http://www.w3.org/2000/svg"
   xmlns:xlink="http://www.w3.org/1999/xlink"
   xmlns:sodipodi="http://sodipodi.sourceforge.net/DTD/sodipodi-0.dtd"
   xmlns:inkscape="http://www.inkscape.org/namespaces/inkscape"
   version="1.1"
   x="0px"
   y="0px"
   width="111"
   height="48"
   viewBox="0 0 111 48"
   id="svg2"
   inkscape:version="0.48.4 r9939"
   sodipodi:docname="svink-logo.svg"
   inkscape:export-filename="C:\_GITHUB\svg-inkscape-rasterizer\logo.png"
   inkscape:export-xdpi="90"
   inkscape:export-ydpi="90">
  <metadata
     id="metadata10">
    <rdf:RDF>
      <cc:Work
         rdf:about="">
        <dc:format>image/svg+xml</dc:format>
        <dc:type
           rdf:resource="http://purl.org/dc/dcmitype/StillImage" />
        <dc:title />
      </cc:Work>
    </rdf:RDF>
  </metadata>
  <defs
     id="defs8">
    <linearGradient
       inkscape:collect="always"
       id="linearGradient3054">
      <stop
         style="stop-color:#000000;stop-opacity:1;"
         offset="0"
         id="stop3056" />
      <stop
         style="stop-color:#000000;stop-opacity:0;"
         offset="1"
         id="stop3058" />
    </linearGradient>
    <linearGradient
       inkscape:collect="always"
       xlink:href="#linearGradient3054"
       id="linearGradient3060"
       x1="16.778318"
       y1="29.910875"
       x2="147.20354"
       y2="29.910875"
       gradientUnits="userSpaceOnUse" />
  </defs>
  <sodipodi:namedview
     pagecolor="#ffffff"
     bordercolor="#666666"
     borderopacity="1"
     objecttolerance="10"
     gridtolerance="10"
     guidetolerance="10"
     inkscape:pageopacity="0"
     inkscape:pageshadow="2"
     inkscape:window-width="1858"
     inkscape:window-height="1057"
     id="namedview6"
     showgrid="false"
     inkscape:zoom="7.6288928"
     inkscape:cx="55.708727"
     inkscape:cy="25.197519"
     inkscape:window-x="-8"
     inkscape:window-y="-8"
     inkscape:window-maximized="1"
     inkscape:current-layer="svg2"
     fit-margin-top="0"
     fit-margin-left="0"
     fit-margin-right="0"
     fit-margin-bottom="0" />
  <circle
     cx="64"
     cy="64"
     r="64"
     id="circle4"
     style="opacity:0.5;fill:#d45500;stroke:none"
     sodipodi:cx="64"
     sodipodi:cy="64"
     sodipodi:rx="64"
     sodipodi:ry="64"
     transform="matrix(0.24947034,0,0,0.24947034,0.06500385,16.002795)" />
  <rect
     style="opacity:0.47787607;fill:#ffcc00;fill-opacity:1;stroke:none"
     id="rect2987"
     width="24.927223"
     height="24.927223"
     x="23.15299"
     y="-6.2711196"
     transform="matrix(0.96592582,0.25881906,-0.25881905,0.96592583,0,0)" />
  <path
     style="opacity:0.47787607;color:#000000;fill:#d35f5f;fill-opacity:1;fill-rule:nonzero;stroke:none;stroke-width:0;marker:none;visibility:visible;display:inline;overflow:visible;enable-background:accumulate"
     d="M 39.163215,47.934998 0.06500385,31.698648 37.067353,22.132508 z"
     id="path2989"
     inkscape:connector-curvature="0"
     sodipodi:nodetypes="cccc" />
  <path
     style="font-size:40px;font-style:normal;font-variant:normal;font-weight:normal;font-stretch:normal;line-height:125%;letter-spacing:0px;word-spacing:0px;opacity:0.59999999999999998;fill:url(#linearGradient3060);fill-opacity:1;stroke:none;font-family:Roboto Condensed"
     d="M 91.15625 -3.71875 L 86.34375 -3.03125 L 91.65625 34.09375 L 96.46875 33.40625 L 94.78125 21.625 L 96.8125 21.3125 L 105.21875 32.15625 L 110.84375 31.34375 L 100.25 18.4375 L 106.0625 5.75 L 100.4375 6.5625 L 96.21875 17.625 L 94.25 17.9375 L 91.15625 -3.71875 z M 56.71875 1.21875 L 51.875 1.90625 L 52.5625 6.53125 L 57.375 5.84375 L 56.71875 1.21875 z M 76.0625 9.625 C 75.792831 9.6370104 75.531561 9.6472325 75.25 9.6875 C 73.86994 9.884912 72.674235 10.433758 71.6875 11.34375 C 70.70073 12.253796 69.95847 13.45586 69.4375 14.90625 L 68.625 11.125 L 64.1875 11.75 L 67.875 37.5 L 72.71875 36.8125 L 69.96875 17.75 C 70.29489 16.635028 70.82595 15.719633 71.5 15 C 72.17404 14.280412 72.98526 13.859437 73.96875 13.71875 C 75.34879 13.521389 76.45848 13.864101 77.28125 14.75 C 78.104 15.635946 78.68865 17.261019 79.03125 19.65625 L 81.3125 35.59375 L 86.125 34.875 L 83.84375 18.9375 C 83.34232 15.431893 82.3351 12.923865 80.84375 11.4375 C 79.538784 10.136977 77.95018 9.5409271 76.0625 9.625 z M 58.34375 12.59375 L 53.5 13.28125 L 57.1875 39.03125 L 62.03125 38.34375 L 58.34375 12.59375 z M 49.75 13.8125 L 44.78125 14.53125 L 42.96875 33.15625 L 42.875 35.21875 L 42.71875 35.25 L 42.03125 33.3125 L 35.03125 15.9375 L 30.03125 16.65625 L 41.46875 41.28125 L 45.71875 40.65625 L 49.75 13.8125 z M 20.5625 17.65625 C 19.954254 17.647637 19.318511 17.686535 18.65625 17.78125 C 16.118228 18.144282 14.176446 19.138573 12.8125 20.75 C 11.448553 22.361476 10.903904 24.142194 11.1875 26.125 C 11.452948 27.98094 12.306305 29.423011 13.75 30.40625 C 15.193693 31.389538 17.328469 32.191584 20.125 32.84375 C 22.067165 33.407706 23.399248 33.997892 24.15625 34.59375 C 24.913226 35.189627 25.357054 35.969421 25.5 36.96875 C 25.645188 37.983968 25.426487 38.88161 24.8125 39.625 C 24.198488 40.368406 23.253134 40.820768 22 41 C 20.730981 41.181504 19.618322 40.958849 18.65625 40.34375 C 17.694167 39.728664 17.051666 38.594003 16.75 36.9375 L 12.28125 37.59375 L 12.25 37.75 C 12.479239 39.918656 13.51087 41.686136 15.375 43.0625 C 17.239124 44.438866 19.598085 44.906113 22.4375 44.5 C 25.070679 44.123384 27.103826 43.157627 28.53125 41.59375 C 29.958642 40.02989 30.522748 38.188102 30.21875 36.0625 C 29.944209 34.14314 29.046979 32.667186 27.5625 31.625 C 26.077989 30.58283 23.928777 29.76944 21.09375 29.1875 C 19.042777 28.542004 17.691905 27.988269 17.03125 27.5 C 16.370583 27.011783 15.953161 26.264755 15.8125 25.28125 C 15.680907 24.361241 15.923393 23.497288 16.5 22.71875 C 17.076599 21.940258 17.950685 21.484952 19.15625 21.3125 C 20.377663 21.137829 21.4028 21.437091 22.21875 22.21875 C 23.034681 23.000455 23.544041 23.997345 23.71875 25.21875 L 28.34375 24.5625 L 28.375 24.40625 C 28.118535 22.160569 27.097283 20.399432 25.3125 19.125 C 23.973893 18.169214 22.387239 17.682088 20.5625 17.65625 z "
     id="path2990" />
</svg>
