<?xml version="1.0" encoding="UTF-8" standalone="no"?>
<svg
   xmlns:dc="http://purl.org/dc/elements/1.1/"
   xmlns:cc="http://creativecommons.org/ns#"
   xmlns:rdf="http://www.w3.org/1999/02/22-rdf-syntax-ns#"
   xmlns:svg="http://www.w3.org/2000/svg"
   xmlns="http://www.w3.org/2000/svg"
   xmlns:sodipodi="http://sodipodi.sourceforge.net/DTD/sodipodi-0.dtd"
   xmlns:inkscape="http://www.inkscape.org/namespaces/inkscape"
   version="1.1"
   x="0px"
   y="0px"
   width="600"
   height="48"
   viewBox="0 0 600 48"
   id="svg2"
   inkscape:version="0.48.4 r9939"
   sodipodi:docname="logo.svg"
   inkscape:export-filename="C:\_GITHUB\svg-inkscape-rasterizer\logo.png"
   inkscape:export-xdpi="90"
   inkscape:export-ydpi="90">
  <metadata
     id="metadata10">
    <rdf:RDF>
      <cc:Work
         rdf:about="">
        <dc:format>image/svg+xml</dc:format>
        <dc:type
           rdf:resource="http://purl.org/dc/dcmitype/StillImage" />
        <dc:title></dc:title>
      </cc:Work>
    </rdf:RDF>
  </metadata>
  <defs
     id="defs8" />
  <sodipodi:namedview
     pagecolor="#ffffff"
     bordercolor="#666666"
     borderopacity="1"
     objecttolerance="10"
     gridtolerance="10"
     guidetolerance="10"
     inkscape:pageopacity="0"
     inkscape:pageshadow="2"
     inkscape:window-width="1858"
     inkscape:window-height="1057"
     id="namedview6"
     showgrid="false"
     inkscape:zoom="2.843763"
     inkscape:cx="298.61309"
     inkscape:cy="24.065001"
     inkscape:window-x="-8"
     inkscape:window-y="-8"
     inkscape:window-maximized="1"
     inkscape:current-layer="svg2"
     fit-margin-top="0"
     fit-margin-left="0"
     fit-margin-right="0"
     fit-margin-bottom="0" />
  <circle
     cx="64"
     cy="64"
     r="64"
     id="circle4"
     style="opacity:0.50000000000000000;fill:#d45500;stroke:none"
     sodipodi:cx="64"
     sodipodi:cy="64"
     sodipodi:rx="64"
     sodipodi:ry="64"
     transform="matrix(0.24947034,0,0,0.24947034,0.06500385,16.002795)" />
  <rect
     style="opacity:0.47787606999999999;fill:#ffcc00;fill-opacity:1;stroke:none;stroke-width:0;stroke-linecap:round;stroke-linejoin:round;stroke-miterlimit:4;stroke-dasharray:none"
     id="rect2987"
     width="24.927223"
     height="24.927223"
     x="23.15299"
     y="-6.2711196"
     transform="matrix(0.96592582,0.25881906,-0.25881905,0.96592583,0,0)" />
  <path
     style="opacity:0.47787606999999999;color:#000000;fill:#d35f5f;fill-opacity:1;fill-rule:nonzero;stroke:none;stroke-width:0;stroke-linecap:round;stroke-linejoin:round;stroke-miterlimit:4;stroke-opacity:1;stroke-dasharray:none;stroke-dashoffset:0;marker:none;visibility:visible;display:inline;overflow:visible;enable-background:accumulate"
     d="M 42.702392,47.934998 0.06500385,31.698648 37.067353,22.132508 z"
     id="path2989"
     inkscape:connector-curvature="0"
     sodipodi:nodetypes="cccc" />
  <g
     style="font-size:40px;font-style:normal;font-variant:normal;font-weight:normal;font-stretch:normal;line-height:125%;letter-spacing:0px;word-spacing:0px;fill:#000000;fill-opacity:1;stroke:none"
     id="text2992"
     transform="matrix(1.2306459,0,0,1.2306459,-17.74436,-105.24026)">
    <path
       d="m 75.617844,110.63924 c -1.2e-5,-0.8203 -0.270195,-1.51366 -0.810547,-2.08007 -0.540376,-0.5664 -1.559255,-1.18815 -3.056641,-1.86524 -2.174485,-0.84634 -3.785812,-1.74803 -4.833984,-2.70508 -1.04818,-0.95701 -1.572268,-2.19725 -1.572266,-3.7207 -2e-6,-1.627587 0.641274,-3.011049 1.923828,-4.15039 1.282547,-1.139302 2.965488,-1.708963 5.048828,-1.708985 2.174469,2.2e-5 3.906238,0.615256 5.195313,1.845703 1.289047,1.230488 1.907536,2.763689 1.855469,4.599612 l -0.03906,0.11719 -3.808594,0 c -1.2e-5,-1.002593 -0.283214,-1.865222 -0.849609,-2.587895 -0.566417,-0.722638 -1.350921,-1.083966 -2.353516,-1.083985 -0.989591,1.9e-5 -1.761074,0.279967 -2.314453,0.839844 -0.553391,0.559913 -0.830084,1.217465 -0.830078,1.972656 -6e-6,0.80731 0.237624,1.44533 0.712891,1.91406 0.475253,0.46877 1.500643,1.08074 3.076172,1.83594 2.21353,0.79428 3.857408,1.69597 4.93164,2.70508 1.074204,1.00912 1.611312,2.30144 1.611328,3.87695 -1.6e-5,1.7448 -0.664077,3.16407 -1.992187,4.25781 -1.328138,1.09375 -3.072928,1.64063 -5.234375,1.64063 -2.330736,0 -4.166671,-0.66081 -5.507813,-1.98242 -1.341147,-1.32161 -1.979168,-2.86784 -1.914062,-4.63867 l 0.03906,-0.11719 3.691407,0 c 0.05208,1.36719 0.429682,2.35352 1.132812,2.95898 0.703118,0.60547 1.575513,0.90821 2.617188,0.90821 1.028636,0 1.832671,-0.26367 2.412109,-0.79102 0.579415,-0.52734 0.869129,-1.20768 0.869141,-2.04102 z"
       style="font-family:Roboto Condensed;stroke:none"
       id="path2990"
       inkscape:connector-curvature="0" />
    <path
       d="m 89.328781,109.58456 0.332031,1.64062 0.117188,0 0.332031,-1.64062 3.59375,-14.78516 4.082031,0 -6.328125,21.13281 -3.496093,0 -6.367188,-21.13281 4.101563,0 z"
       style="font-family:Roboto Condensed;stroke:none"
       id="path2992"
       inkscape:connector-curvature="0" />
    <path
       d="m 104.83659,115.93221 -3.96484,0 0,-21.13281 3.96484,0 z m 0,-26.679685 -3.96484,0 0,-3.789062 3.96484,0 z"
       style="font-family:Roboto Condensed;stroke:none"
       id="path2994"
       inkscape:connector-curvature="0" />
    <path
       d="m 113.27409,94.7994 0.21485,3.125 c 0.58593,-1.106751 1.32811,-1.969381 2.22656,-2.58789 0.89843,-0.618469 1.91405,-0.927713 3.04687,-0.927735 1.84895,2.2e-5 3.28775,0.683615 4.31641,2.050782 1.02863,1.367205 1.54295,3.489599 1.54297,6.367183 l 0,13.10547 -3.96484,0 0,-13.0664 c -2e-5,-1.96613 -0.27996,-3.352852 -0.83985,-4.16016 -0.55991,-0.807273 -1.40626,-1.210919 -2.53906,-1.210937 -0.8073,1.8e-5 -1.52345,0.250669 -2.14844,0.751953 -0.625,0.501319 -1.13282,1.181657 -1.52344,2.041014 l 0,15.64453 -3.96484,0 0,-21.13281 z"
       style="font-family:Roboto Condensed;stroke:none"
       id="path2996"
       inkscape:connector-curvature="0" />
    <path
       d="m 134.778,106.24471 -1.67969,0 0,9.6875 -3.94531,0 0,-30.468747 3.94531,0 0,17.753907 1.6211,0 4.66796,-8.41797 4.62891,0 -6.13281,9.53125 7.01172,11.60156 -4.60938,0 z"
       style="font-family:Roboto Condensed;stroke:none"
       id="path2998"
       inkscape:connector-curvature="0" />
    <path
       d="m 166.47722,110.87362 c -10e-6,-0.96354 -0.31577,-1.79361 -0.94727,-2.49024 -0.63152,-0.6966 -1.78712,-1.42902 -3.46679,-2.19726 -2.14845,-0.88541 -3.72071,-1.7871 -4.7168,-2.70508 -0.9961,-0.91795 -1.49414,-2.11913 -1.49414,-3.603515 0,-1.510399 0.59244,-2.79946 1.77734,-3.867187 1.18489,-1.067688 2.72135,-1.601541 4.60938,-1.601563 2.0052,2.2e-5 3.59374,0.592469 4.76562,1.777344 1.17186,1.184914 1.73176,2.662778 1.67969,4.433591 l -0.0391,0.11719 -2.20703,0 c -2e-5,-1.145817 -0.37762,-2.141909 -1.13282,-2.988281 -0.75522,-0.846335 -1.77735,-1.269512 -3.0664,-1.269531 -1.31511,1.9e-5 -2.31772,0.33205 -3.00782,0.996094 -0.6901,0.66408 -1.03516,1.438819 -1.03515,2.324218 -1e-5,0.93752 0.27343,1.68947 0.82031,2.25586 0.54687,0.56642 1.71874,1.27931 3.51563,2.13867 2.10936,0.84637 3.68488,1.76759 4.72656,2.76367 1.04165,0.99611 1.56248,2.25587 1.5625,3.7793 -2e-5,1.67969 -0.60223,3.03386 -1.80664,4.0625 -1.20444,1.02865 -2.79624,1.54297 -4.77539,1.54297 -2.17449,0 -3.87696,-0.61524 -5.10742,-1.8457 -1.23048,-1.23047 -1.81316,-2.69206 -1.74805,-4.38477 l 0.0391,-0.11719 2.1875,0 c 0.0781,1.51042 0.5664,2.60743 1.46484,3.29102 0.89844,0.68359 1.95312,1.02539 3.16407,1.02539 1.31509,0 2.35025,-0.33203 3.10547,-0.99609 0.75519,-0.66406 1.1328,-1.47787 1.13281,-2.44141 z"
       style="font-family:Roboto Condensed Light;stroke:none"
       id="path3000"
       inkscape:connector-curvature="0" />
    <path
       d="m 178.44987,110.60018 0.46875,2.05078 0.11719,0 0.50781,-2.05078 4.53125,-15.80078 2.40235,0 -6.58203,21.13281 -1.83594,0 -6.62109,-21.13281 2.42187,0 z"
       style="font-family:Roboto Condensed Light;stroke:none"
       id="path3002"
       inkscape:connector-curvature="0" />
    <path
       d="m 189.153,104.33065 c 0,-2.99478 0.60547,-5.397118 1.81641,-7.207031 1.21093,-1.809875 2.8841,-2.714822 5.01953,-2.714844 1.18488,2.2e-5 2.22329,0.289735 3.11523,0.869141 0.89192,0.579447 1.63085,1.403014 2.2168,2.470703 l 0.23437,-2.949219 1.99219,0 0,21.15234 c -2e-5,2.70833 -0.63152,4.80469 -1.89453,6.28907 -1.26303,1.48436 -3.0534,2.22655 -5.37109,2.22656 -0.83335,-1e-5 -1.72853,-0.12696 -2.68555,-0.38086 -0.95704,-0.25391 -1.80665,-0.5892 -2.54883,-1.00586 l 0.64453,-2.05078 c 0.63802,0.40364 1.34765,0.71939 2.12891,0.94726 0.78124,0.22786 1.58853,0.3418 2.42187,0.3418 1.67968,0 2.92317,-0.54037 3.73047,-1.62109 0.80728,-1.08074 1.21093,-2.66276 1.21094,-4.7461 l 0,-2.55859 c -0.59897,0.95052 -1.33465,1.67969 -2.20703,2.1875 -0.87241,0.50781 -1.88152,0.76172 -3.02735,0.76172 -2.1224,0 -3.78581,-0.83008 -4.99023,-2.49024 -1.20443,-1.66015 -1.80664,-3.87043 -1.80664,-6.63085 z m 2.36328,2.89063 c 0,2.13542 0.41015,3.84115 1.23047,5.11718 0.82031,1.27605 2.05728,1.91407 3.71094,1.91407 1.1328,0 2.08983,-0.30925 2.87109,-0.92774 0.78124,-0.61849 1.39973,-1.4746 1.85547,-2.56836 l 0,-10.46875 c -0.44272,-1.119773 -1.04493,-2.027976 -1.80664,-2.724608 -0.76173,-0.696595 -1.72202,-1.044902 -2.88086,-1.044922 -1.65365,2e-5 -2.89714,0.722675 -3.73047,2.167969 -0.83334,1.445331 -1.25,3.326841 -1.25,5.644531 z"
       style="font-family:Roboto Condensed Light;stroke:none"
       id="path3004"
       inkscape:connector-curvature="0" />
    <path
       d="m 214.85612,104.83846 -7.79296,0 0,-2.03125 7.79296,0 z"
       style="font-family:Roboto Condensed Light;stroke:none"
       id="path3006"
       inkscape:connector-curvature="0" />
    <path
       d="m 221.10612,115.93221 -2.36328,0 0,-21.13281 2.36328,0 z m 0,-27.148435 -2.36328,0 0,-3.320312 2.36328,0 z"
       style="font-family:Roboto Condensed Light;stroke:none"
       id="path3008"
       inkscape:connector-curvature="0" />
    <path
       d="m 228.72331,94.7994 0.19531,3.496094 c 0.5599,-1.23696 1.30534,-2.193991 2.23633,-2.871094 0.93098,-0.677062 2.02148,-1.015603 3.27149,-1.015625 1.88801,2.2e-5 3.33657,0.699891 4.3457,2.09961 1.0091,1.399757 1.51366,3.577485 1.51367,6.533205 l 0,12.89062 -2.36328,0 0,-12.87109 c -1e-5,-2.40884 -0.35157,-4.101546 -1.05469,-5.078126 -0.70313,-0.976543 -1.72527,-1.464824 -3.0664,-1.464844 -1.19793,2e-5 -2.20053,0.3939 -3.00782,1.181641 -0.80729,0.787778 -1.41276,1.839209 -1.8164,3.154299 l 0,15.07812 -2.34375,0 0,-21.13281 z"
       style="font-family:Roboto Condensed Light;stroke:none"
       id="path3010"
       inkscape:connector-curvature="0" />
    <path
       d="m 250.11003,105.67831 -2.22656,0 0,10.2539 -2.32422,0 0,-30.468747 2.32422,0 0,18.144527 2.05078,0 5.95703,-8.80859 2.83203,0 -6.79687,9.64844 7.57812,11.48437 -2.8125,0 z"
       style="font-family:Roboto Condensed Light;stroke:none"
       id="path3012"
       inkscape:connector-curvature="0" />
    <path
       d="m 272.57097,110.87362 c -10e-6,-0.96354 -0.31577,-1.79361 -0.94727,-2.49024 -0.63152,-0.6966 -1.78712,-1.42902 -3.46679,-2.19726 -2.14845,-0.88541 -3.72071,-1.7871 -4.7168,-2.70508 -0.9961,-0.91795 -1.49414,-2.11913 -1.49414,-3.603515 0,-1.510399 0.59244,-2.79946 1.77734,-3.867187 1.18489,-1.067688 2.72135,-1.601541 4.60938,-1.601563 2.0052,2.2e-5 3.59374,0.592469 4.76562,1.777344 1.17186,1.184914 1.73176,2.662778 1.67969,4.433591 l -0.0391,0.11719 -2.20703,0 c -2e-5,-1.145817 -0.37762,-2.141909 -1.13282,-2.988281 -0.75522,-0.846335 -1.77735,-1.269512 -3.0664,-1.269531 -1.31511,1.9e-5 -2.31772,0.33205 -3.00782,0.996094 -0.6901,0.66408 -1.03516,1.438819 -1.03515,2.324218 -10e-6,0.93752 0.27343,1.68947 0.82031,2.25586 0.54687,0.56642 1.71874,1.27931 3.51563,2.13867 2.10936,0.84637 3.68488,1.76759 4.72656,2.76367 1.04165,0.99611 1.56248,2.25587 1.5625,3.7793 -2e-5,1.67969 -0.60223,3.03386 -1.80664,4.0625 -1.20444,1.02865 -2.79624,1.54297 -4.77539,1.54297 -2.17449,0 -3.87696,-0.61524 -5.10742,-1.8457 -1.23048,-1.23047 -1.81316,-2.69206 -1.74805,-4.38477 l 0.0391,-0.11719 2.1875,0 c 0.0781,1.51042 0.5664,2.60743 1.46484,3.29102 0.89844,0.68359 1.95312,1.02539 3.16407,1.02539 1.31509,0 2.35025,-0.33203 3.10547,-0.99609 0.75519,-0.66406 1.1328,-1.47787 1.13281,-2.44141 z"
       style="font-family:Roboto Condensed Light;stroke:none"
       id="path3014"
       inkscape:connector-curvature="0" />
    <path
       d="m 285.96941,114.31112 c 1.22394,0 2.29816,-0.43945 3.22265,-1.31836 0.92447,-0.8789 1.38671,-2.09309 1.38672,-3.64258 l 2.07031,0 0.0586,0.11719 c 0.039,1.95313 -0.61851,3.58724 -1.97266,4.90234 -1.35418,1.31511 -2.94272,1.97266 -4.76562,1.97266 -2.43491,0 -4.30665,-0.86914 -5.61524,-2.60742 -1.30859,-1.73828 -1.96289,-3.97461 -1.96289,-6.70899 l 0,-3.28125 c 0,-2.72134 0.6543,-4.957662 1.96289,-6.708982 1.30859,-1.751281 3.18033,-2.626931 5.61524,-2.626953 1.96613,2.2e-5 3.59048,0.68687 4.87304,2.060547 1.28254,1.373716 1.90428,3.180355 1.86524,5.419918 l -0.0391,0.0977 -2.08984,0 c -1e-5,-1.67967 -0.43947,-3.017561 -1.31836,-4.013672 -0.87892,-0.996074 -1.97592,-1.494121 -3.29101,-1.49414 -1.82293,1.9e-5 -3.15105,0.686868 -3.98438,2.060547 -0.83334,1.373714 -1.25,3.108735 -1.25,5.205075 l 0,3.28125 c 0,2.12241 0.41666,3.8672 1.25,5.23438 0.83333,1.36719 2.16145,2.05078 3.98438,2.05078 z"
       style="font-family:Roboto Condensed Light;stroke:none"
       id="path3016"
       inkscape:connector-curvature="0" />
    <path
       d="m 307.92253,115.93221 c -0.1172,-0.72916 -0.20509,-1.32812 -0.26367,-1.79687 -0.0586,-0.46875 -0.0879,-0.94401 -0.0879,-1.42578 -0.63803,1.05469 -1.46811,1.92383 -2.49024,2.60742 -1.02214,0.68359 -2.15821,1.02539 -3.4082,1.02539 -1.7448,0 -3.09245,-0.54362 -4.04297,-1.63086 -0.95052,-1.08724 -1.42578,-2.55534 -1.42578,-4.4043 0,-1.96614 0.6901,-3.53189 2.07031,-4.69726 1.38021,-1.16536 3.24869,-1.74804 5.60547,-1.74805 l 3.69141,0 0,-2.59766 c -1e-5,-1.497376 -0.37762,-2.669249 -1.13281,-3.515621 -0.75522,-0.846335 -1.80991,-1.269512 -3.16407,-1.269531 -1.26302,1.9e-5 -2.30144,0.403665 -3.11523,1.210937 -0.81381,0.807309 -1.22071,1.796892 -1.2207,2.968755 l -2.1875,-0.0195 -0.0391,-0.11718 c -0.0651,-1.588528 0.53711,-3.004542 1.80664,-4.24805 1.26953,-1.243469 2.89388,-1.865213 4.87305,-1.865235 1.95312,2.2e-5 3.52863,0.595724 4.72656,1.78711 1.19791,1.191424 1.79686,2.893897 1.79688,5.107425 l 0,10.37109 c -2e-5,0.75521 0.0325,1.48438 0.0976,2.1875 0.0651,0.70313 0.18228,1.39323 0.35157,2.07031 z m -5.95703,-1.69922 c 1.30207,1e-5 2.45767,-0.37434 3.4668,-1.12304 1.0091,-0.7487 1.72199,-1.70247 2.13867,-2.86133 l 0,-4.57031 -3.75,0 c -1.60157,1e-5 -2.88087,0.45248 -3.83789,1.35742 -0.95704,0.90495 -1.43555,2.02149 -1.43555,3.34961 0,1.13281 0.29948,2.05729 0.89844,2.77344 0.59895,0.71614 1.43879,1.07422 2.51953,1.07421 z"
       style="font-family:Roboto Condensed Light;stroke:none"
       id="path3018"
       inkscape:connector-curvature="0" />
    <path
       d="m 329.68034,107.22128 c -10e-6,2.77344 -0.59572,4.98698 -1.78711,6.64062 -1.19142,1.65365 -2.83529,2.48047 -4.93164,2.48047 -1.1849,0 -2.22006,-0.2474 -3.10547,-0.74219 -0.88542,-0.49479 -1.62109,-1.21093 -2.20703,-2.14844 l 0,10.60547 -2.34375,0 0,-29.25781 1.97266,0 0.25391,2.910157 c 0.58593,-1.054669 1.32811,-1.86847 2.22656,-2.441407 0.89843,-0.572895 1.9466,-0.859353 3.14453,-0.859375 2.12238,2.2e-5 3.78254,0.901714 4.98047,2.705078 1.1979,1.803403 1.79686,4.208997 1.79687,7.216797 z m -2.38281,-2.89063 c -10e-6,-2.30467 -0.42319,-4.18293 -1.26953,-5.634765 -0.84637,-1.451805 -2.08986,-2.177715 -3.73047,-2.177735 -1.15886,2e-5 -2.11915,0.345071 -2.88086,1.035157 -0.76172,0.690121 -1.35092,1.588558 -1.76758,2.695313 l 0,10.64453 c 0.42969,1.06771 1.02864,1.9043 1.79688,2.50977 0.76822,0.60547 1.72525,0.9082 2.87109,0.9082 1.64062,0 2.88085,-0.64779 3.72071,-1.94336 0.83983,-1.29557 1.25975,-3.01106 1.25976,-5.14648 z"
       style="font-family:Roboto Condensed Light;stroke:none"
       id="path3020"
       inkscape:connector-curvature="0" />
    <path
       d="m 341.028,116.34237 c -2.27865,0 -4.14063,-0.85612 -5.58594,-2.56836 -1.44531,-1.71224 -2.16797,-3.89648 -2.16797,-6.55273 l 0,-3.51563 c 0,-2.66926 0.72591,-4.88605 2.17774,-6.65039 1.45182,-1.764303 3.19986,-2.646463 5.24414,-2.646485 2.21353,2.2e-5 3.93228,0.791037 5.15625,2.373047 1.22394,1.582049 1.83592,3.707698 1.83594,6.376958 l 0,2.32421 -12.08985,0 0,1.73829 c 0,2.03125 0.48828,3.7207 1.46485,5.06835 0.97655,1.34766 2.29817,2.02149 3.96484,2.02149 1.15884,0 2.15819,-0.20182 2.99805,-0.60547 0.83983,-0.40364 1.55923,-0.97656 2.1582,-1.71875 l 0.95703,1.66016 c -0.63803,0.82031 -1.4616,1.47461 -2.4707,1.96289 -1.00913,0.48828 -2.22332,0.73242 -3.64258,0.73242 z m -0.33203,-19.863282 c -1.47136,1.9e-5 -2.67904,0.670592 -3.62305,2.011719 -0.94401,1.341162 -1.43555,2.994803 -1.47461,4.960933 l 9.7461,0 0,-0.89843 c -2e-5,-1.74478 -0.41017,-3.193346 -1.23047,-4.345707 -0.82033,-1.152324 -1.95965,-1.728496 -3.41797,-1.728515 z"
       style="font-family:Roboto Condensed Light;stroke:none"
       id="path3022"
       inkscape:connector-curvature="0" />
    <path
       d="m 357.82487,104.83846 -7.79296,0 0,-2.03125 7.79296,0 z"
       style="font-family:Roboto Condensed Light;stroke:none"
       id="path3024"
       inkscape:connector-curvature="0" />
    <path
       d="m 369.66081,96.908775 -1.54297,-0.117187 c -1.09375,1.9e-5 -1.9987,0.367857 -2.71484,1.103515 -0.71615,0.735695 -1.2435,1.748064 -1.58203,3.037107 l 0,15 -2.34375,0 0,-21.13281 2.07031,0 0.27344,3.496094 c 0.49478,-1.223939 1.14908,-2.177714 1.96289,-2.861328 0.81379,-0.683573 1.76757,-1.025369 2.86133,-1.025391 0.24738,2.2e-5 0.49478,0.02281 0.74218,0.06836 0.24739,0.04559 0.4427,0.09442 0.58594,0.146484 z"
       style="font-family:Roboto Condensed Light;stroke:none"
       id="path3026"
       inkscape:connector-curvature="0" />
    <path
       d="m 384.17253,115.93221 c -0.1172,-0.72916 -0.20509,-1.32812 -0.26367,-1.79687 -0.0586,-0.46875 -0.0879,-0.94401 -0.0879,-1.42578 -0.63803,1.05469 -1.46811,1.92383 -2.49024,2.60742 -1.02214,0.68359 -2.15821,1.02539 -3.4082,1.02539 -1.7448,0 -3.09245,-0.54362 -4.04297,-1.63086 -0.95052,-1.08724 -1.42578,-2.55534 -1.42578,-4.4043 0,-1.96614 0.6901,-3.53189 2.07031,-4.69726 1.38021,-1.16536 3.24869,-1.74804 5.60547,-1.74805 l 3.69141,0 0,-2.59766 c -1e-5,-1.497376 -0.37762,-2.669249 -1.13281,-3.515621 -0.75522,-0.846335 -1.80991,-1.269512 -3.16407,-1.269531 -1.26302,1.9e-5 -2.30144,0.403665 -3.11523,1.210937 -0.81381,0.807309 -1.22071,1.796892 -1.2207,2.968755 l -2.1875,-0.0195 -0.0391,-0.11718 c -0.0651,-1.588528 0.53711,-3.004542 1.80664,-4.24805 1.26953,-1.243469 2.89388,-1.865213 4.87305,-1.865235 1.95312,2.2e-5 3.52863,0.595724 4.72656,1.78711 1.19791,1.191424 1.79686,2.893897 1.79688,5.107425 l 0,10.37109 c -2e-5,0.75521 0.0325,1.48438 0.0976,2.1875 0.0651,0.70313 0.18228,1.39323 0.35157,2.07031 z m -5.95703,-1.69922 c 1.30207,1e-5 2.45767,-0.37434 3.4668,-1.12304 1.0091,-0.7487 1.72199,-1.70247 2.13867,-2.86133 l 0,-4.57031 -3.75,0 c -1.60157,1e-5 -2.88087,0.45248 -3.83789,1.35742 -0.95704,0.90495 -1.43555,2.02149 -1.43555,3.34961 0,1.13281 0.29948,2.05729 0.89844,2.77344 0.59895,0.71614 1.43879,1.07422 2.51953,1.07421 z"
       style="font-family:Roboto Condensed Light;stroke:none"
       id="path3028"
       inkscape:connector-curvature="0" />
    <path
       d="m 401.71159,110.87362 c -10e-6,-0.96354 -0.31576,-1.79361 -0.94726,-2.49024 -0.63152,-0.6966 -1.78712,-1.42902 -3.4668,-2.19726 -2.14844,-0.88541 -3.72071,-1.7871 -4.7168,-2.70508 -0.99609,-0.91795 -1.49414,-2.11913 -1.49414,-3.603515 0,-1.510399 0.59245,-2.79946 1.77735,-3.867187 1.18489,-1.067688 2.72134,-1.601541 4.60937,-1.601563 2.0052,2.2e-5 3.59374,0.592469 4.76563,1.777344 1.17186,1.184914 1.73175,2.662778 1.67968,4.433591 l -0.0391,0.11719 -2.20703,0 c -10e-6,-1.145817 -0.37762,-2.141909 -1.13281,-2.988281 -0.75522,-0.846335 -1.77735,-1.269512 -3.06641,-1.269531 -1.31511,1.9e-5 -2.31771,0.33205 -3.00781,0.996094 -0.69011,0.66408 -1.03516,1.438819 -1.03516,2.324218 0,0.93752 0.27344,1.68947 0.82032,2.25586 0.54687,0.56642 1.71874,1.27931 3.51562,2.13867 2.10937,0.84637 3.68488,1.76759 4.72656,2.76367 1.04166,0.99611 1.56249,2.25587 1.5625,3.7793 -10e-6,1.67969 -0.60222,3.03386 -1.80664,4.0625 -1.20444,1.02865 -2.79623,1.54297 -4.77539,1.54297 -2.17448,0 -3.87696,-0.61524 -5.10742,-1.8457 -1.23047,-1.23047 -1.81315,-2.69206 -1.74805,-4.38477 l 0.0391,-0.11719 2.1875,0 c 0.0781,1.51042 0.5664,2.60743 1.46484,3.29102 0.89843,0.68359 1.95312,1.02539 3.16406,1.02539 1.3151,0 2.35025,-0.33203 3.10547,-0.99609 0.7552,-0.66406 1.1328,-1.47787 1.13281,-2.44141 z"
       style="font-family:Roboto Condensed Light;stroke:none"
       id="path3030"
       inkscape:connector-curvature="0" />
    <path
       d="m 411.88737,89.408775 0,5.390625 3.67188,0 0,1.972657 -3.67188,0 0,13.710933 c 0,1.3672 0.19531,2.33725 0.58594,2.91016 0.39062,0.57292 0.90494,0.85938 1.54297,0.85938 0.31249,0 0.61848,-0.0195 0.91797,-0.0586 0.29947,-0.0391 0.63801,-0.0977 1.01562,-0.17578 l 0.3125,1.79688 c -0.31251,0.15625 -0.71941,0.2832 -1.2207,0.38085 -0.50131,0.0977 -1.00587,0.14649 -1.51367,0.14649 -1.25001,0 -2.22982,-0.46875 -2.93945,-1.40625 -0.70964,-0.9375 -1.06446,-2.42187 -1.06446,-4.45313 l 0,-13.710933 -2.92968,0 0,-1.972657 2.92968,0 0,-5.390625 z"
       style="font-family:Roboto Condensed Light;stroke:none"
       id="path3032"
       inkscape:connector-curvature="0" />
    <path
       d="m 426.80925,116.34237 c -2.27865,0 -4.14063,-0.85612 -5.58594,-2.56836 -1.44531,-1.71224 -2.16797,-3.89648 -2.16797,-6.55273 l 0,-3.51563 c 0,-2.66926 0.72591,-4.88605 2.17774,-6.65039 1.45182,-1.764303 3.19986,-2.646463 5.24414,-2.646485 2.21353,2.2e-5 3.93228,0.791037 5.15625,2.373047 1.22394,1.582049 1.83592,3.707698 1.83594,6.376958 l 0,2.32421 -12.08985,0 0,1.73829 c 0,2.03125 0.48828,3.7207 1.46485,5.06835 0.97655,1.34766 2.29817,2.02149 3.96484,2.02149 1.15884,0 2.15819,-0.20182 2.99805,-0.60547 0.83983,-0.40364 1.55923,-0.97656 2.1582,-1.71875 l 0.95703,1.66016 c -0.63803,0.82031 -1.4616,1.47461 -2.4707,1.96289 -1.00913,0.48828 -2.22332,0.73242 -3.64258,0.73242 z m -0.33203,-19.863282 c -1.47136,1.9e-5 -2.67904,0.670592 -3.62305,2.011719 -0.94401,1.341162 -1.43555,2.994803 -1.47461,4.960933 l 9.7461,0 0,-0.89843 c -2e-5,-1.74478 -0.41017,-3.193346 -1.23047,-4.345707 -0.82033,-1.152324 -1.95965,-1.728496 -3.41797,-1.728515 z"
       style="font-family:Roboto Condensed Light;stroke:none"
       id="path3034"
       inkscape:connector-curvature="0" />
    <path
       d="m 445.75456,96.908775 -1.54297,-0.117187 c -1.09375,1.9e-5 -1.9987,0.367857 -2.71484,1.103515 -0.71615,0.735695 -1.2435,1.748064 -1.58203,3.037107 l 0,15 -2.34375,0 0,-21.13281 2.07031,0 0.27344,3.496094 c 0.49478,-1.223939 1.14908,-2.177714 1.96289,-2.861328 0.81379,-0.683573 1.76757,-1.025369 2.86133,-1.025391 0.24738,2.2e-5 0.49478,0.02281 0.74218,0.06836 0.24739,0.04559 0.4427,0.09442 0.58594,0.146484 z"
       style="font-family:Roboto Condensed Light;stroke:none"
       id="path3036"
       inkscape:connector-curvature="0" />
    <path
       d="m 451.88737,115.93221 -2.36328,0 0,-21.13281 2.36328,0 z m 0,-27.148435 -2.36328,0 0,-3.320312 2.36328,0 z"
       style="font-family:Roboto Condensed Light;stroke:none"
       id="path3038"
       inkscape:connector-curvature="0" />
    <path
       d="m 458.95769,113.90096 10.72265,0 0,2.03125 -13.33984,0 0,-1.75781 10,-17.285156 -9.76563,0 0,-2.089844 12.44141,0 0,1.777344 z"
       style="font-family:Roboto Condensed Light;stroke:none"
       id="path3040"
       inkscape:connector-curvature="0" />
    <path
       d="m 480.403,116.34237 c -2.27865,0 -4.14063,-0.85612 -5.58594,-2.56836 -1.44531,-1.71224 -2.16797,-3.89648 -2.16797,-6.55273 l 0,-3.51563 c 0,-2.66926 0.72591,-4.88605 2.17774,-6.65039 1.45182,-1.764303 3.19986,-2.646463 5.24414,-2.646485 2.21353,2.2e-5 3.93228,0.791037 5.15625,2.373047 1.22394,1.582049 1.83592,3.707698 1.83594,6.376958 l 0,2.32421 -12.08985,0 0,1.73829 c 0,2.03125 0.48828,3.7207 1.46485,5.06835 0.97655,1.34766 2.29817,2.02149 3.96484,2.02149 1.15884,0 2.15819,-0.20182 2.99805,-0.60547 0.83983,-0.40364 1.55923,-0.97656 2.1582,-1.71875 l 0.95703,1.66016 c -0.63803,0.82031 -1.4616,1.47461 -2.4707,1.96289 -1.00913,0.48828 -2.22332,0.73242 -3.64258,0.73242 z m -0.33203,-19.863282 c -1.47136,1.9e-5 -2.67904,0.670592 -3.62305,2.011719 -0.94401,1.341162 -1.43555,2.994803 -1.47461,4.960933 l 9.7461,0 0,-0.89843 c -2e-5,-1.74478 -0.41017,-3.193346 -1.23047,-4.345707 -0.82033,-1.152324 -1.95965,-1.728496 -3.41797,-1.728515 z"
       style="font-family:Roboto Condensed Light;stroke:none"
       id="path3042"
       inkscape:connector-curvature="0" />
    <path
       d="m 499.34831,96.908775 -1.54297,-0.117187 c -1.09375,1.9e-5 -1.9987,0.367857 -2.71484,1.103515 -0.71615,0.735695 -1.2435,1.748064 -1.58203,3.037107 l 0,15 -2.34375,0 0,-21.13281 2.07031,0 0.27344,3.496094 c 0.49478,-1.223939 1.14908,-2.177714 1.96289,-2.861328 0.81379,-0.683573 1.76757,-1.025369 2.86133,-1.025391 0.24738,2.2e-5 0.49478,0.02281 0.74218,0.06836 0.24739,0.04559 0.4427,0.09442 0.58594,0.146484 z"
       style="font-family:Roboto Condensed Light;stroke:none"
       id="path3044"
       inkscape:connector-curvature="0" />
  </g>
</svg>
